{"title":"Midwinter Of Spirit S01E03 x264 RB58.mp4","uid":12533293,"size":522387969,"categoryP":"video","categoryS":"tv_shows","magnet":"?xt=urn:btih:5cacb1bc1b765b28b62e23e8bf3323f56d4fc976&amp;dn=Midwinter+Of+Spirit+S01E03+x264+RB58.mp4&amp;tr=udp%3A%2F%2Ftracker.leechers-paradise.org%3A6969&amp;tr=udp%3A%2F%2Fzer0day.ch%3A1337&amp;tr=udp%3A%2F%2Fopen.demonii.com%3A1337&amp;tr=udp%3A%2F%2Ftracker.coppersurfer.tk%3A6969&amp;tr=udp%3A%2F%2Fexodus.desync.com%3A6969","seeders":0,"leechers":0,"uploader":"RedBaron58","files":1,"time":1444299838,"description":"Midwinter of the Spirit S01E03 x264 mp4\r\n \nhttp://www.imdb.com/title/tt4853930/\r\n\r\nTrailer:\r\n\r\n\r\nPlease be patient My intial upload speed is limited.\r\nThank you for your kind comments and feedback on my other torrents, your feedback is welcome.\r\n\r\n\r\nAbout the Episode:\r\nExhausted by her own demons, battling anyone else's is the last thing Merrily wants to do. \r\nHowever, she must gather her wits and take strength from her mentor Huw Owen as she puts the final \r\npieces of the jigsaw into place. \r\nAs the investigation reaches its conclusion, Merrily realises she needs to steel herself and summon \r\nthe energy to fight evil in order to save her daughter's soul.\r\n \r\nCrime drama, starring Anna Maxwell Martin and David Threlfall\r\n\r\n\r\nI hope you enjoy.\r\n\r\n\r\nTechnical:\r\n\r\nGeneral\r\nComplete name                            : H:Midwinter Of Spirit S01E03 x264 RB58.mp4\r\nFormat                                   : MPEG-4\r\nFormat profile                           : Base Media\r\nCodec ID                                 : isom\r\nFile size                                : 498 MiB\r\nDuration                                 : 45mn 47s\r\nOverall bit rate                         : 1 521 Kbps\r\nWriting application                      : Lavf54.63.104\r\n\r\nVideo\r\nID                                       : 1\r\nFormat                                   : AVC\r\nFormat/Info                              : Advanced Video Codec\r\nFormat profile                           :   \r\nFormat settings, CABAC                   : Yes\r\nFormat settings, ReFrames                : 4 frames\r\nCodec ID                                 : avc1\r\nCodec ID/Info                            : Advanced Video Coding\r\nDuration                                 : 45mn 47s\r\nBit rate                                 : 1 400 Kbps\r\nWidth                                    : 832 pixels\r\nHeight                                   : 468 pixels\r\nDisplay aspect ratio                     : 16:9\r\nFrame rate mode                          : Constant\r\nFrame rate                               : 25.000 fps\r\nColor space                              : YUV\r\nChroma subsampling                       : 4:2:0\r\nBit depth                                : 8 bits\r\nScan type                                : Progressive\r\nBits/(Pixel*Frame)                       : 0.144\r\nStream size                              : 459 MiB (92%)\r\nWriting library                          : x264 core 123 r2189 35cf912\r\nEncoding settings                        : cabac=1 / ref=3 / deblock=1:0:0\r\n\r\nAudio\r\nID                                       : 2\r\nFormat                                   : AAC\r\nFormat/Info                              : Advanced Audio Codec\r\nFormat profile                           : LC\r\nCodec ID                                 : 40\r\nDuration                                 : 45mn 47s\r\nBit rate mode                            : Constant\r\nBit rate                                 : 112 Kbps\r\nChannel(s)                               : 2 channels\r\nChannel positions                        : Front: L R\r\nSampling rate                            : 48.0 KHz\r\nCompression mode                         : Lossy\r\nStream size                              : 36.7 MiB (7%)\r\nLanguage                                 : English","torrent":{"xt":"urn:btih:5cacb1bc1b765b28b62e23e8bf3323f56d4fc976","amp;dn":"Midwinter+Of+Spirit+S01E03+x264+RB58.mp4","amp;tr":["udp%3A%2F%2Ftracker.leechers-paradise.org%3A6969","udp%3A%2F%2Fzer0day.ch%3A1337","udp%3A%2F%2Fopen.demonii.com%3A1337","udp%3A%2F%2Ftracker.coppersurfer.tk%3A6969","udp%3A%2F%2Fexodus.desync.com%3A6969"],"infoHash":"5cacb1bc1b765b28b62e23e8bf3323f56d4fc976","infoHashBuffer":{"type":"Buffer","data":[92,172,177,188,27,118,91,40,182,46,35,232,191,51,35,245,109,79,201,118]},"announce":[],"urlList":[]}}